<?xml version="1.0" encoding="UTF-8"?>
<svg width="16px" height="16px" viewBox="0 0 16 16" version="1.1" xmlns="http://www.w3.org/2000/svg" xmlns:xlink="http://www.w3.org/1999/xlink">
    <!-- Generator: Sketch 41.2 (35397) - http://www.bohemiancoding.com/sketch -->
    <title>ackermann-tab-icon</title>
    <desc>Created with Sketch.</desc>
    <defs></defs>
    <g id="Page-1" stroke="none" stroke-width="1" fill="none" fill-rule="evenodd">
        <g id="ackermann-tab-icon" fill="#2E93B9">
            <path d="M8,16 C12.418278,16 16,12.418278 16,8 C16,3.581722 12.418278,0 8,0 C3.581722,0 0,3.581722 0,8 C0,12.418278 3.581722,16 8,16 Z M4.25342502,11.4909721 C4.52097065,11.3477296 4.82270663,11.2040555 5.15111653,11.0699386 C6.11854916,10.6748557 7.10668733,10.4455041 8.04636842,10.4632516 C8.96151644,10.4805357 9.92480471,10.7342777 10.8725033,11.1481865 C11.2197599,11.2998513 11.5398387,11.4623911 11.8244623,11.6245112 C11.9233323,11.6808271 12.0103942,11.7328515 12.0846365,11.7791643 C12.1276881,11.8060201 12.1559585,11.8243533 12.1684459,11.8327418 C12.4442162,12.0008589 12.6638329,12.0582262 12.912764,11.8219886 C13.0732732,11.6696641 13.0970247,11.4844897 13.055424,11.3113273 C13.0366243,11.2330738 13.0039387,11.1604693 12.9594625,11.085562 L8.57795345,3.7061784 C8.30284473,3.2428374 7.70214907,3.24537686 7.42676528,3.70918115 L3.15318523,10.9067897 C3.00375174,11.1584671 2.95033232,11.3872912 3.18096309,11.6309627 C3.42041891,11.8839581 3.65962118,11.83317 3.9163987,11.6835656 C3.98562382,11.6400774 4.09528327,11.5756404 4.25342502,11.4909721 Z M8.0032508,4.61862471 L11.3940911,10.3295136 C11.3487579,10.3089925 11.3029686,10.2886257 11.2567366,10.2684338 C10.2026771,9.80807175 9.12194862,9.52339451 8.06449639,9.50342276 C6.97751868,9.48289337 5.86681108,9.74069391 4.78816819,10.1811931 C4.74902938,10.1971767 4.71023433,10.2132845 4.67179155,10.2295035 L8.0032508,4.61862471 Z"></path>
        </g>
    </g>
</svg>