<?xml version="1.0" encoding="UTF-8"?>
<svg width="16px" height="16px" viewBox="0 0 16 16" version="1.1" xmlns="http://www.w3.org/2000/svg" xmlns:xlink="http://www.w3.org/1999/xlink">
    <!-- Generator: Sketch 41.2 (35397) - http://www.bohemiancoding.com/sketch -->
    <title>ackermann-tab-icon</title>
    <desc>Created with Sketch.</desc>
    <defs></defs>
    <g id="Page-1" stroke="none" stroke-width="1" fill="none" fill-rule="evenodd">
        <g id="ackermann-tab-icon" fill="#2E93B9">
            <path d="M8,15 C11.8659932,15 15,11.8659932 15,8 C15,4.13400675 11.8659932,1 8,1 C4.13400675,1 1,4.13400675 1,8 C1,11.8659932 4.13400675,15 8,15 Z M4.72174689,11.0546006 C4.95584932,10.9292634 5.2198683,10.8035486 5.50722697,10.6861962 C6.35373052,10.3404988 7.21835141,10.1398161 8.04057237,10.1553451 C8.84132689,10.1704687 9.68420412,10.392493 10.5134404,10.7546632 C10.8172899,10.8873699 11.0973588,11.0295922 11.3464045,11.1714473 C11.4329157,11.2207237 11.5090949,11.2662451 11.5740569,11.3067687 C11.6117271,11.3302676 11.6364636,11.3463091 11.6473901,11.353649 C11.8886891,11.5007516 12.0808538,11.5509479 12.2986685,11.34424 C12.439114,11.2109561 12.4598966,11.0489285 12.423496,10.8974114 C12.4070463,10.8289396 12.3784463,10.7654106 12.3395296,10.6998667 L8.50570927,4.2429061 C8.26498914,3.83748273 7.73938044,3.83970475 7.49841962,4.2455335 L3.75903707,10.5434409 C3.62828277,10.7636587 3.58154078,10.9638798 3.7833427,11.1770923 C3.99286655,11.3984634 4.20216853,11.3540237 4.42684887,11.2231199 C4.48742084,11.1850677 4.58337286,11.1286853 4.72174689,11.0546006 Z M8.00284445,5.04129662 L10.9698297,10.0383244 C10.9301631,10.0203684 10.8900976,10.0025475 10.8496446,9.98487961 C9.92734243,9.58206278 8.98170504,9.33297019 8.05643434,9.31549491 C7.10532884,9.2975317 6.1334597,9.52310717 5.18964716,9.90854396 C5.15540071,9.92252962 5.12145504,9.93662391 5.08781761,9.95081552 L8.00284445,5.04129662 Z"></path>
        </g>
    </g>
</svg>