<?xml version="1.0" standalone="no"?>
<!DOCTYPE svg PUBLIC "-//W3C//DTD SVG 20010904//EN"
 "http://www.w3.org/TR/2001/REC-SVG-20010904/DTD/svg10.dtd">
<svg version="1.0" xmlns="http://www.w3.org/2000/svg"
 width="16.000000pt" height="16.000000pt" viewBox="0 0 16.000000 16.000000"
 preserveAspectRatio="xMidYMid meet">
<metadata>
Created by potrace 1.11, written by Peter Selinger 2001-2013
</metadata>
<g transform="translate(0.000000,16.000000) scale(0.005333,-0.005333)"
fill="#000000" stroke="none">
<path d="M0 1500 l0 -1500 1500 0 1500 0 0 1500 0 1500 -1500 0 -1500 0 0
-1500z m2560 935 l0 -125 -1060 0 -1060 0 0 125 0 125 1060 0 1060 0 0 -125z
m0 -1330 l0 -665 -120 0 -120 0 0 540 0 540 -820 0 -820 0 0 -540 0 -540 -120
0 -120 0 0 665 0 665 1060 0 1060 0 0 -665z m-790 -395 l0 -270 -270 0 -270 0
0 270 0 270 270 0 270 0 0 -270z"/>
</g>
</svg>
